<svg width="56" height="18" viewBox="0 0 56 18" fill="none" xmlns="http://www.w3.org/2000/svg">
<g clip-path="url(#clip0_687_5691)">
<path d="M14.0864 6.36465H7.6984V8.2597H12.2289C12.0051 10.9171 9.79357 12.0504 7.70607 12.0504C5.03534 12.0504 2.7048 9.94959 2.7048 7.00514C2.7048 4.13679 4.9264 1.92776 7.71194 1.92776C9.86103 1.92776 11.1274 3.29738 11.1274 3.29738L12.4547 1.92333C12.4547 1.92333 10.7511 0.0273438 7.64409 0.0273438C3.6877 0.027289 0.626953 3.36553 0.626953 6.97128C0.626953 10.5045 3.50609 13.9497 7.74493 13.9497C11.473 13.9497 14.202 11.3966 14.202 7.62103C14.202 6.82451 14.0864 6.36416 14.0864 6.36416L14.0864 6.36465Z" fill="#4885ED"/>
<path d="M19.32 4.99219C16.6988 4.99219 14.8203 7.04085 14.8203 9.43017C14.8203 11.8548 16.6424 13.9416 19.3508 13.9416C21.8027 13.9416 23.8113 12.0681 23.8113 9.48227C23.8113 6.51854 21.4748 4.99219 19.32 4.99219ZM19.3461 6.74984C20.6351 6.74984 21.8566 7.79168 21.8566 9.47044C21.8566 11.1136 20.6403 12.1851 19.3402 12.1851C17.9116 12.1851 16.7847 11.0413 16.7847 9.4574C16.7847 7.90744 17.8977 6.74984 19.346 6.74984H19.3461Z" fill="#DB3236"/>
<path d="M29.1051 4.99219C26.484 4.99219 24.6055 7.04085 24.6055 9.43017C24.6055 11.8548 26.4275 13.9416 29.1359 13.9416C31.5878 13.9416 33.5965 12.0681 33.5965 9.48227C33.5965 6.51854 31.2599 4.99219 29.1051 4.99219ZM29.1312 6.74984C30.4202 6.74984 31.6417 7.79168 31.6417 9.47044C31.6417 11.1136 30.4254 12.1851 29.1253 12.1851C27.6968 12.1851 26.5698 11.0413 26.5698 9.4574C26.5698 7.90744 27.6828 6.74984 29.1312 6.74984H29.1312Z" fill="#F4C20D"/>
<path d="M38.7033 4.99805C36.2974 4.99805 34.4062 7.10468 34.4062 9.46918C34.4062 12.1625 36.5987 13.9486 38.6619 13.9486C39.9375 13.9486 40.6159 13.4424 41.1167 12.8613V13.7437C41.1167 15.2875 40.179 16.212 38.7638 16.212C37.3966 16.212 36.7108 15.1957 36.4725 14.619L34.7523 15.3379C35.3625 16.6279 36.591 17.9732 38.778 17.9732C41.1702 17.9732 42.9934 16.4669 42.9934 13.3078V5.26709H41.1167V6.02509C40.5397 5.40345 39.7506 4.99816 38.7033 4.99816V4.99805ZM38.8775 6.75214C40.0571 6.75214 41.2683 7.75908 41.2683 9.47865C41.2683 11.2265 40.0596 12.1898 38.8514 12.1898C37.5688 12.1898 36.3753 11.1486 36.3753 9.49525C36.3753 7.77732 37.6148 6.75214 38.8774 6.75214H38.8775Z" fill="#4885ED"/>
<path d="M51.3372 4.98633C49.0677 4.98633 47.1621 6.79148 47.1621 9.4551C47.1621 12.2736 49.2861 13.9452 51.5552 13.9452C53.4489 13.9452 54.6112 12.9094 55.3049 11.9814L53.7576 10.9522C53.3561 11.5752 52.6849 12.184 51.5646 12.184C50.3063 12.184 49.7277 11.4951 49.3693 10.8278L55.371 8.33821L55.0594 7.60859C54.4796 6.17981 53.1271 4.9866 51.3374 4.9866L51.3372 4.98633ZM51.4154 6.70727C52.2331 6.70727 52.8217 7.14193 53.0716 7.6631L49.0636 9.33786C48.8908 8.04128 50.1196 6.70727 51.4154 6.70727Z" fill="#DB3236"/>
<path d="M44.3027 13.6796H46.2742V0.490234H44.3027V13.6796Z" fill="#3CBA54"/>
</g>
<defs>
<clipPath id="clip0_687_5691">
<rect width="54.8" height="18" fill="white" transform="translate(0.599609)"/>
</clipPath>
</defs>
</svg>
