<svg width="89" height="16" viewBox="0 0 89 16" fill="none" xmlns="http://www.w3.org/2000/svg">
<path d="M8.49935 10.0449L11.7971 12.4449L10.5349 8.56932L13.8327 6.22266H9.78824L8.49935 2.22266L7.21046 6.22266H3.16602L6.46379 8.56932L5.20157 12.4449L8.49935 10.0449Z" fill="#BF822B"/>
<path d="M26.4993 10.0449L29.7971 12.4449L28.5349 8.56932L31.8327 6.22266H27.7882L26.4993 2.22266L25.2105 6.22266H21.166L24.4638 8.56932L23.2016 12.4449L26.4993 10.0449Z" fill="#BF822B"/>
<path d="M44.4993 10.0449L47.7971 12.4449L46.5349 8.56932L49.8327 6.22266H45.7882L44.4993 2.22266L43.2105 6.22266H39.166L42.4638 8.56932L41.2016 12.4449L44.4993 10.0449Z" fill="#BF822B"/>
<path d="M62.4993 10.0449L65.7971 12.4449L64.5349 8.56932L67.8327 6.22266H63.7882L62.4993 2.22266L61.2105 6.22266H57.166L60.4638 8.56932L59.2016 12.4449L62.4993 10.0449Z" fill="#BF822B"/>
<path d="M80.4993 10.0449L83.7971 12.4449L82.5349 8.56932L85.8327 6.22266H81.7882L80.4993 2.22266L79.2105 6.22266H75.166L78.4638 8.56932L77.2016 12.4449L80.4993 10.0449Z" fill="#BF822B"/>
</svg>
